solid ASCII
  facet normal -1.000000e+00 0.000000e+00 0.000000e+00
    outer loop
      vertex   -1.670000e+01 -9.200000e+00 -1.500000e+00
      vertex   -1.670000e+01 9.200000e+00 -1.500000e+00
      vertex   -1.670000e+01 -9.200000e+00 -3.000000e+00
    endloop
  endfacet
  facet normal -1.000000e+00 0.000000e+00 0.000000e+00
    outer loop
      vertex   -1.670000e+01 -9.200000e+00 -3.000000e+00
      vertex   -1.670000e+01 9.200000e+00 -1.500000e+00
      vertex   -1.670000e+01 9.200000e+00 -3.000000e+00
    endloop
  endfacet
  facet normal -0.000000e+00 -1.000000e+00 -0.000000e+00
    outer loop
      vertex   1.670000e+01 -9.200000e+00 -1.500000e+00
      vertex   -1.670000e+01 -9.200000e+00 -1.500000e+00
      vertex   1.670000e+01 -9.200000e+00 -3.000000e+00
    endloop
  endfacet
  facet normal 0.000000e+00 -1.000000e+00 0.000000e+00
    outer loop
      vertex   1.670000e+01 -9.200000e+00 -3.000000e+00
      vertex   -1.670000e+01 -9.200000e+00 -1.500000e+00
      vertex   -1.670000e+01 -9.200000e+00 -3.000000e+00
    endloop
  endfacet
  facet normal 1.000000e+00 0.000000e+00 0.000000e+00
    outer loop
      vertex   1.670000e+01 9.200000e+00 -1.500000e+00
      vertex   1.670000e+01 -9.200000e+00 -1.500000e+00
      vertex   1.670000e+01 9.200000e+00 -3.000000e+00
    endloop
  endfacet
  facet normal 1.000000e+00 0.000000e+00 0.000000e+00
    outer loop
      vertex   1.670000e+01 9.200000e+00 -3.000000e+00
      vertex   1.670000e+01 -9.200000e+00 -1.500000e+00
      vertex   1.670000e+01 -9.200000e+00 -3.000000e+00
    endloop
  endfacet
  facet normal -0.000000e+00 1.000000e+00 0.000000e+00
    outer loop
      vertex   -1.670000e+01 9.200000e+00 -1.500000e+00
      vertex   1.670000e+01 9.200000e+00 -1.500000e+00
      vertex   -1.670000e+01 9.200000e+00 -3.000000e+00
    endloop
  endfacet
  facet normal 0.000000e+00 1.000000e+00 0.000000e+00
    outer loop
      vertex   -1.670000e+01 9.200000e+00 -3.000000e+00
      vertex   1.670000e+01 9.200000e+00 -1.500000e+00
      vertex   1.670000e+01 9.200000e+00 -3.000000e+00
    endloop
  endfacet
  facet normal 0.000000e+00 0.000000e+00 -1.000000e+00
    outer loop
      vertex   -1.670000e+01 9.200000e+00 -3.000000e+00
      vertex   1.670000e+01 9.200000e+00 -3.000000e+00
      vertex   -1.670000e+01 -9.200000e+00 -3.000000e+00
    endloop
  endfacet
  facet normal 0.000000e+00 0.000000e+00 -1.000000e+00
    outer loop
      vertex   -1.670000e+01 -9.200000e+00 -3.000000e+00
      vertex   1.670000e+01 9.200000e+00 -3.000000e+00
      vertex   1.670000e+01 -9.200000e+00 -3.000000e+00
    endloop
  endfacet
  facet normal 9.937122e-01 1.119645e-01 0.000000e+00
    outer loop
      vertex   1.824881e+01 9.751514e+00 0.000000e+00
      vertex   1.824881e+01 9.751514e+00 -1.500000e+00
      vertex   1.822374e+01 9.974035e+00 0.000000e+00
    endloop
  endfacet
  facet normal 9.937122e-01 1.119645e-01 0.000000e+00
    outer loop
      vertex   1.822374e+01 9.974035e+00 0.000000e+00
      vertex   1.824881e+01 9.751514e+00 -1.500000e+00
      vertex   1.822374e+01 9.974035e+00 -1.500000e+00
    endloop
  endfacet
  facet normal 9.438833e-01 3.302791e-01 0.000000e+00
    outer loop
      vertex   1.822374e+01 9.974035e+00 0.000000e+00
      vertex   1.822374e+01 9.974035e+00 -1.500000e+00
      vertex   1.814978e+01 1.018540e+01 0.000000e+00
    endloop
  endfacet
  facet normal 9.438833e-01 3.302791e-01 0.000000e+00
    outer loop
      vertex   1.814978e+01 1.018540e+01 0.000000e+00
      vertex   1.822374e+01 9.974035e+00 -1.500000e+00
      vertex   1.814978e+01 1.018540e+01 -1.500000e+00
    endloop
  endfacet
  facet normal 8.467242e-01 5.320321e-01 0.000000e+00
    outer loop
      vertex   1.814978e+01 1.018540e+01 0.000000e+00
      vertex   1.814978e+01 1.018540e+01 -1.500000e+00
      vertex   1.803064e+01 1.037500e+01 0.000000e+00
    endloop
  endfacet
  facet normal 8.467242e-01 5.320321e-01 0.000000e+00
    outer loop
      vertex   1.803064e+01 1.037500e+01 0.000000e+00
      vertex   1.814978e+01 1.018540e+01 -1.500000e+00
      vertex   1.803064e+01 1.037500e+01 -1.500000e+00
    endloop
  endfacet
  facet normal 7.071068e-01 7.071068e-01 0.000000e+00
    outer loop
      vertex   1.803064e+01 1.037500e+01 0.000000e+00
      vertex   1.803064e+01 1.037500e+01 -1.500000e+00
      vertex   1.787230e+01 1.053335e+01 0.000000e+00
    endloop
  endfacet
  facet normal 7.071068e-01 7.071068e-01 0.000000e+00
    outer loop
      vertex   1.787230e+01 1.053335e+01 0.000000e+00
      vertex   1.803064e+01 1.037500e+01 -1.500000e+00
      vertex   1.787230e+01 1.053335e+01 -1.500000e+00
    endloop
  endfacet
  facet normal 5.320321e-01 8.467242e-01 0.000000e+00
    outer loop
      vertex   1.787230e+01 1.053335e+01 0.000000e+00
      vertex   1.787230e+01 1.053335e+01 -1.500000e+00
      vertex   1.768269e+01 1.065248e+01 0.000000e+00
    endloop
  endfacet
  facet normal 5.320321e-01 8.467242e-01 0.000000e+00
    outer loop
      vertex   1.768269e+01 1.065248e+01 0.000000e+00
      vertex   1.787230e+01 1.053335e+01 -1.500000e+00
      vertex   1.768269e+01 1.065248e+01 -1.500000e+00
    endloop
  endfacet
  facet normal 3.302791e-01 9.438833e-01 0.000000e+00
    outer loop
      vertex   1.768269e+01 1.065248e+01 0.000000e+00
      vertex   1.768269e+01 1.065248e+01 -1.500000e+00
      vertex   1.747133e+01 1.072644e+01 0.000000e+00
    endloop
  endfacet
  facet normal 3.302791e-01 9.438833e-01 0.000000e+00
    outer loop
      vertex   1.747133e+01 1.072644e+01 0.000000e+00
      vertex   1.768269e+01 1.065248e+01 -1.500000e+00
      vertex   1.747133e+01 1.072644e+01 -1.500000e+00
    endloop
  endfacet
  facet normal 1.119645e-01 9.937122e-01 0.000000e+00
    outer loop
      vertex   1.747133e+01 1.072644e+01 0.000000e+00
      vertex   1.747133e+01 1.072644e+01 -1.500000e+00
      vertex   1.724881e+01 1.075151e+01 0.000000e+00
    endloop
  endfacet
  facet normal 1.119645e-01 9.937122e-01 0.000000e+00
    outer loop
      vertex   1.724881e+01 1.075151e+01 0.000000e+00
      vertex   1.747133e+01 1.072644e+01 -1.500000e+00
      vertex   1.724881e+01 1.075151e+01 -1.500000e+00
    endloop
  endfacet
  facet normal 0.000000e+00 0.000000e+00 1.000000e+00
    outer loop
      vertex   1.822374e+01 9.974035e+00 0.000000e+00
      vertex   1.724881e+01 1.075151e+01 0.000000e+00
      vertex   1.824881e+01 9.751514e+00 0.000000e+00
    endloop
  endfacet
  facet normal 0.000000e+00 0.000000e+00 1.000000e+00
    outer loop
      vertex   1.824881e+01 9.751514e+00 0.000000e+00
      vertex   1.724881e+01 1.075151e+01 0.000000e+00
      vertex   -1.725119e+01 1.075151e+01 0.000000e+00
    endloop
  endfacet
  facet normal 0.000000e+00 0.000000e+00 1.000000e+00
    outer loop
      vertex   1.824881e+01 9.751514e+00 0.000000e+00
      vertex   -1.725119e+01 1.075151e+01 0.000000e+00
      vertex   -1.825119e+01 9.751514e+00 0.000000e+00
    endloop
  endfacet
  facet normal 0.000000e+00 0.000000e+00 1.000000e+00
    outer loop
      vertex   -1.825119e+01 9.751514e+00 0.000000e+00
      vertex   -1.725119e+01 1.075151e+01 0.000000e+00
      vertex   -1.822612e+01 9.974035e+00 0.000000e+00
    endloop
  endfacet
  facet normal 0.000000e+00 0.000000e+00 1.000000e+00
    outer loop
      vertex   -1.822612e+01 9.974035e+00 0.000000e+00
      vertex   -1.725119e+01 1.075151e+01 0.000000e+00
      vertex   -1.815216e+01 1.018540e+01 0.000000e+00
    endloop
  endfacet
  facet normal 0.000000e+00 0.000000e+00 1.000000e+00
    outer loop
      vertex   -1.815216e+01 1.018540e+01 0.000000e+00
      vertex   -1.725119e+01 1.075151e+01 0.000000e+00
      vertex   -1.803302e+01 1.037500e+01 0.000000e+00
    endloop
  endfacet
  facet normal 0.000000e+00 0.000000e+00 1.000000e+00
    outer loop
      vertex   -1.803302e+01 1.037500e+01 0.000000e+00
      vertex   -1.725119e+01 1.075151e+01 0.000000e+00
      vertex   -1.787468e+01 1.053335e+01 0.000000e+00
    endloop
  endfacet
  facet normal 0.000000e+00 0.000000e+00 1.000000e+00
    outer loop
      vertex   -1.787468e+01 1.053335e+01 0.000000e+00
      vertex   -1.725119e+01 1.075151e+01 0.000000e+00
      vertex   -1.768507e+01 1.065248e+01 0.000000e+00
    endloop
  endfacet
  facet normal 0.000000e+00 0.000000e+00 1.000000e+00
    outer loop
      vertex   -1.768507e+01 1.065248e+01 0.000000e+00
      vertex   -1.725119e+01 1.075151e+01 0.000000e+00
      vertex   -1.747371e+01 1.072644e+01 0.000000e+00
    endloop
  endfacet
  facet normal 0.000000e+00 0.000000e+00 1.000000e+00
    outer loop
      vertex   1.822374e+01 9.974035e+00 0.000000e+00
      vertex   1.814978e+01 1.018540e+01 0.000000e+00
      vertex   1.724881e+01 1.075151e+01 0.000000e+00
    endloop
  endfacet
  facet normal 0.000000e+00 0.000000e+00 1.000000e+00
    outer loop
      vertex   1.724881e+01 1.075151e+01 0.000000e+00
      vertex   1.814978e+01 1.018540e+01 0.000000e+00
      vertex   1.803064e+01 1.037500e+01 0.000000e+00
    endloop
  endfacet
  facet normal 0.000000e+00 0.000000e+00 1.000000e+00
    outer loop
      vertex   1.724881e+01 1.075151e+01 0.000000e+00
      vertex   1.803064e+01 1.037500e+01 0.000000e+00
      vertex   1.787230e+01 1.053335e+01 0.000000e+00
    endloop
  endfacet
  facet normal 0.000000e+00 0.000000e+00 1.000000e+00
    outer loop
      vertex   1.787230e+01 1.053335e+01 0.000000e+00
      vertex   1.768269e+01 1.065248e+01 0.000000e+00
      vertex   1.724881e+01 1.075151e+01 0.000000e+00
    endloop
  endfacet
  facet normal 0.000000e+00 0.000000e+00 1.000000e+00
    outer loop
      vertex   1.724881e+01 1.075151e+01 0.000000e+00
      vertex   1.768269e+01 1.065248e+01 0.000000e+00
      vertex   1.747133e+01 1.072644e+01 0.000000e+00
    endloop
  endfacet
  facet normal 0.000000e+00 0.000000e+00 1.000000e+00
    outer loop
      vertex   1.824881e+01 9.751514e+00 0.000000e+00
      vertex   -1.825119e+01 9.751514e+00 0.000000e+00
      vertex   1.824881e+01 -9.748486e+00 0.000000e+00
    endloop
  endfacet
  facet normal 0.000000e+00 0.000000e+00 1.000000e+00
    outer loop
      vertex   1.824881e+01 -9.748486e+00 0.000000e+00
      vertex   -1.825119e+01 9.751514e+00 0.000000e+00
      vertex   -1.825119e+01 -9.748486e+00 0.000000e+00
    endloop
  endfacet
  facet normal 0.000000e+00 0.000000e+00 1.000000e+00
    outer loop
      vertex   1.824881e+01 -9.748486e+00 0.000000e+00
      vertex   -1.825119e+01 -9.748486e+00 0.000000e+00
      vertex   1.724881e+01 -1.074849e+01 0.000000e+00
    endloop
  endfacet
  facet normal 0.000000e+00 0.000000e+00 1.000000e+00
    outer loop
      vertex   1.724881e+01 -1.074849e+01 0.000000e+00
      vertex   -1.825119e+01 -9.748486e+00 0.000000e+00
      vertex   -1.725119e+01 -1.074849e+01 0.000000e+00
    endloop
  endfacet
  facet normal 0.000000e+00 0.000000e+00 1.000000e+00
    outer loop
      vertex   -1.725119e+01 -1.074849e+01 0.000000e+00
      vertex   -1.825119e+01 -9.748486e+00 0.000000e+00
      vertex   -1.822612e+01 -9.971007e+00 0.000000e+00
    endloop
  endfacet
  facet normal 0.000000e+00 0.000000e+00 1.000000e+00
    outer loop
      vertex   -1.725119e+01 -1.074849e+01 0.000000e+00
      vertex   -1.822612e+01 -9.971007e+00 0.000000e+00
      vertex   -1.815216e+01 -1.018237e+01 0.000000e+00
    endloop
  endfacet
  facet normal 0.000000e+00 0.000000e+00 1.000000e+00
    outer loop
      vertex   -1.815216e+01 -1.018237e+01 0.000000e+00
      vertex   -1.803302e+01 -1.037198e+01 0.000000e+00
      vertex   -1.725119e+01 -1.074849e+01 0.000000e+00
    endloop
  endfacet
  facet normal 0.000000e+00 0.000000e+00 1.000000e+00
    outer loop
      vertex   -1.725119e+01 -1.074849e+01 0.000000e+00
      vertex   -1.803302e+01 -1.037198e+01 0.000000e+00
      vertex   -1.787468e+01 -1.053032e+01 0.000000e+00
    endloop
  endfacet
  facet normal 0.000000e+00 0.000000e+00 1.000000e+00
    outer loop
      vertex   -1.725119e+01 -1.074849e+01 0.000000e+00
      vertex   -1.787468e+01 -1.053032e+01 0.000000e+00
      vertex   -1.768507e+01 -1.064945e+01 0.000000e+00
    endloop
  endfacet
  facet normal 0.000000e+00 0.000000e+00 1.000000e+00
    outer loop
      vertex   -1.768507e+01 -1.064945e+01 0.000000e+00
      vertex   -1.747371e+01 -1.072341e+01 0.000000e+00
      vertex   -1.725119e+01 -1.074849e+01 0.000000e+00
    endloop
  endfacet
  facet normal 0.000000e+00 -0.000000e+00 1.000000e+00
    outer loop
      vertex   1.747133e+01 -1.072341e+01 0.000000e+00
      vertex   1.768269e+01 -1.064945e+01 0.000000e+00
      vertex   1.724881e+01 -1.074849e+01 0.000000e+00
    endloop
  endfacet
  facet normal 0.000000e+00 0.000000e+00 1.000000e+00
    outer loop
      vertex   1.724881e+01 -1.074849e+01 0.000000e+00
      vertex   1.768269e+01 -1.064945e+01 0.000000e+00
      vertex   1.787230e+01 -1.053032e+01 0.000000e+00
    endloop
  endfacet
  facet normal 0.000000e+00 0.000000e+00 1.000000e+00
    outer loop
      vertex   1.724881e+01 -1.074849e+01 0.000000e+00
      vertex   1.787230e+01 -1.053032e+01 0.000000e+00
      vertex   1.803064e+01 -1.037198e+01 0.000000e+00
    endloop
  endfacet
  facet normal 0.000000e+00 -0.000000e+00 1.000000e+00
    outer loop
      vertex   1.803064e+01 -1.037198e+01 0.000000e+00
      vertex   1.814978e+01 -1.018237e+01 0.000000e+00
      vertex   1.724881e+01 -1.074849e+01 0.000000e+00
    endloop
  endfacet
  facet normal 0.000000e+00 0.000000e+00 1.000000e+00
    outer loop
      vertex   1.724881e+01 -1.074849e+01 0.000000e+00
      vertex   1.814978e+01 -1.018237e+01 0.000000e+00
      vertex   1.822374e+01 -9.971007e+00 0.000000e+00
    endloop
  endfacet
  facet normal 0.000000e+00 0.000000e+00 1.000000e+00
    outer loop
      vertex   1.724881e+01 -1.074849e+01 0.000000e+00
      vertex   1.822374e+01 -9.971007e+00 0.000000e+00
      vertex   1.824881e+01 -9.748486e+00 0.000000e+00
    endloop
  endfacet
  facet normal 0.000000e+00 1.000000e+00 -0.000000e+00
    outer loop
      vertex   1.724881e+01 1.075151e+01 -1.500000e+00
      vertex   -1.725119e+01 1.075151e+01 -1.500000e+00
      vertex   1.724881e+01 1.075151e+01 0.000000e+00
    endloop
  endfacet
  facet normal 0.000000e+00 1.000000e+00 0.000000e+00
    outer loop
      vertex   1.724881e+01 1.075151e+01 0.000000e+00
      vertex   -1.725119e+01 1.075151e+01 -1.500000e+00
      vertex   -1.725119e+01 1.075151e+01 0.000000e+00
    endloop
  endfacet
  facet normal -1.119645e-01 9.937122e-01 0.000000e+00
    outer loop
      vertex   -1.725119e+01 1.075151e+01 0.000000e+00
      vertex   -1.725119e+01 1.075151e+01 -1.500000e+00
      vertex   -1.747371e+01 1.072644e+01 0.000000e+00
    endloop
  endfacet
  facet normal -1.119645e-01 9.937122e-01 0.000000e+00
    outer loop
      vertex   -1.747371e+01 1.072644e+01 0.000000e+00
      vertex   -1.725119e+01 1.075151e+01 -1.500000e+00
      vertex   -1.747371e+01 1.072644e+01 -1.500000e+00
    endloop
  endfacet
  facet normal -3.302791e-01 9.438833e-01 0.000000e+00
    outer loop
      vertex   -1.747371e+01 1.072644e+01 0.000000e+00
      vertex   -1.747371e+01 1.072644e+01 -1.500000e+00
      vertex   -1.768507e+01 1.065248e+01 0.000000e+00
    endloop
  endfacet
  facet normal -3.302791e-01 9.438833e-01 0.000000e+00
    outer loop
      vertex   -1.768507e+01 1.065248e+01 0.000000e+00
      vertex   -1.747371e+01 1.072644e+01 -1.500000e+00
      vertex   -1.768507e+01 1.065248e+01 -1.500000e+00
    endloop
  endfacet
  facet normal -5.320321e-01 8.467242e-01 0.000000e+00
    outer loop
      vertex   -1.768507e+01 1.065248e+01 0.000000e+00
      vertex   -1.768507e+01 1.065248e+01 -1.500000e+00
      vertex   -1.787468e+01 1.053335e+01 0.000000e+00
    endloop
  endfacet
  facet normal -5.320321e-01 8.467242e-01 0.000000e+00
    outer loop
      vertex   -1.787468e+01 1.053335e+01 0.000000e+00
      vertex   -1.768507e+01 1.065248e+01 -1.500000e+00
      vertex   -1.787468e+01 1.053335e+01 -1.500000e+00
    endloop
  endfacet
  facet normal -7.071068e-01 7.071068e-01 0.000000e+00
    outer loop
      vertex   -1.787468e+01 1.053335e+01 0.000000e+00
      vertex   -1.787468e+01 1.053335e+01 -1.500000e+00
      vertex   -1.803302e+01 1.037500e+01 0.000000e+00
    endloop
  endfacet
  facet normal -7.071068e-01 7.071068e-01 0.000000e+00
    outer loop
      vertex   -1.803302e+01 1.037500e+01 0.000000e+00
      vertex   -1.787468e+01 1.053335e+01 -1.500000e+00
      vertex   -1.803302e+01 1.037500e+01 -1.500000e+00
    endloop
  endfacet
  facet normal -8.467242e-01 5.320321e-01 0.000000e+00
    outer loop
      vertex   -1.803302e+01 1.037500e+01 0.000000e+00
      vertex   -1.803302e+01 1.037500e+01 -1.500000e+00
      vertex   -1.815216e+01 1.018540e+01 0.000000e+00
    endloop
  endfacet
  facet normal -8.467242e-01 5.320321e-01 0.000000e+00
    outer loop
      vertex   -1.815216e+01 1.018540e+01 0.000000e+00
      vertex   -1.803302e+01 1.037500e+01 -1.500000e+00
      vertex   -1.815216e+01 1.018540e+01 -1.500000e+00
    endloop
  endfacet
  facet normal -9.438833e-01 3.302791e-01 0.000000e+00
    outer loop
      vertex   -1.815216e+01 1.018540e+01 0.000000e+00
      vertex   -1.815216e+01 1.018540e+01 -1.500000e+00
      vertex   -1.822612e+01 9.974035e+00 0.000000e+00
    endloop
  endfacet
  facet normal -9.438833e-01 3.302791e-01 0.000000e+00
    outer loop
      vertex   -1.822612e+01 9.974035e+00 0.000000e+00
      vertex   -1.815216e+01 1.018540e+01 -1.500000e+00
      vertex   -1.822612e+01 9.974035e+00 -1.500000e+00
    endloop
  endfacet
  facet normal -9.937122e-01 1.119645e-01 0.000000e+00
    outer loop
      vertex   -1.822612e+01 9.974035e+00 0.000000e+00
      vertex   -1.822612e+01 9.974035e+00 -1.500000e+00
      vertex   -1.825119e+01 9.751514e+00 0.000000e+00
    endloop
  endfacet
  facet normal -9.937122e-01 1.119645e-01 0.000000e+00
    outer loop
      vertex   -1.825119e+01 9.751514e+00 0.000000e+00
      vertex   -1.822612e+01 9.974035e+00 -1.500000e+00
      vertex   -1.825119e+01 9.751514e+00 -1.500000e+00
    endloop
  endfacet
  facet normal 1.119645e-01 -9.937122e-01 0.000000e+00
    outer loop
      vertex   1.724881e+01 -1.074849e+01 0.000000e+00
      vertex   1.724881e+01 -1.074849e+01 -1.500000e+00
      vertex   1.747133e+01 -1.072341e+01 0.000000e+00
    endloop
  endfacet
  facet normal 1.119645e-01 -9.937122e-01 0.000000e+00
    outer loop
      vertex   1.747133e+01 -1.072341e+01 0.000000e+00
      vertex   1.724881e+01 -1.074849e+01 -1.500000e+00
      vertex   1.747133e+01 -1.072341e+01 -1.500000e+00
    endloop
  endfacet
  facet normal 3.302791e-01 -9.438833e-01 0.000000e+00
    outer loop
      vertex   1.747133e+01 -1.072341e+01 0.000000e+00
      vertex   1.747133e+01 -1.072341e+01 -1.500000e+00
      vertex   1.768269e+01 -1.064945e+01 0.000000e+00
    endloop
  endfacet
  facet normal 3.302791e-01 -9.438833e-01 0.000000e+00
    outer loop
      vertex   1.768269e+01 -1.064945e+01 0.000000e+00
      vertex   1.747133e+01 -1.072341e+01 -1.500000e+00
      vertex   1.768269e+01 -1.064945e+01 -1.500000e+00
    endloop
  endfacet
  facet normal 5.320321e-01 -8.467242e-01 0.000000e+00
    outer loop
      vertex   1.768269e+01 -1.064945e+01 0.000000e+00
      vertex   1.768269e+01 -1.064945e+01 -1.500000e+00
      vertex   1.787230e+01 -1.053032e+01 0.000000e+00
    endloop
  endfacet
  facet normal 5.320321e-01 -8.467242e-01 0.000000e+00
    outer loop
      vertex   1.787230e+01 -1.053032e+01 0.000000e+00
      vertex   1.768269e+01 -1.064945e+01 -1.500000e+00
      vertex   1.787230e+01 -1.053032e+01 -1.500000e+00
    endloop
  endfacet
  facet normal 7.071068e-01 -7.071068e-01 0.000000e+00
    outer loop
      vertex   1.787230e+01 -1.053032e+01 0.000000e+00
      vertex   1.787230e+01 -1.053032e+01 -1.500000e+00
      vertex   1.803064e+01 -1.037198e+01 0.000000e+00
    endloop
  endfacet
  facet normal 7.071068e-01 -7.071068e-01 0.000000e+00
    outer loop
      vertex   1.803064e+01 -1.037198e+01 0.000000e+00
      vertex   1.787230e+01 -1.053032e+01 -1.500000e+00
      vertex   1.803064e+01 -1.037198e+01 -1.500000e+00
    endloop
  endfacet
  facet normal 8.467242e-01 -5.320321e-01 0.000000e+00
    outer loop
      vertex   1.803064e+01 -1.037198e+01 0.000000e+00
      vertex   1.803064e+01 -1.037198e+01 -1.500000e+00
      vertex   1.814978e+01 -1.018237e+01 0.000000e+00
    endloop
  endfacet
  facet normal 8.467242e-01 -5.320321e-01 0.000000e+00
    outer loop
      vertex   1.814978e+01 -1.018237e+01 0.000000e+00
      vertex   1.803064e+01 -1.037198e+01 -1.500000e+00
      vertex   1.814978e+01 -1.018237e+01 -1.500000e+00
    endloop
  endfacet
  facet normal 9.438833e-01 -3.302791e-01 0.000000e+00
    outer loop
      vertex   1.814978e+01 -1.018237e+01 0.000000e+00
      vertex   1.814978e+01 -1.018237e+01 -1.500000e+00
      vertex   1.822374e+01 -9.971007e+00 0.000000e+00
    endloop
  endfacet
  facet normal 9.438833e-01 -3.302791e-01 0.000000e+00
    outer loop
      vertex   1.822374e+01 -9.971007e+00 0.000000e+00
      vertex   1.814978e+01 -1.018237e+01 -1.500000e+00
      vertex   1.822374e+01 -9.971007e+00 -1.500000e+00
    endloop
  endfacet
  facet normal 9.937122e-01 -1.119645e-01 0.000000e+00
    outer loop
      vertex   1.822374e+01 -9.971007e+00 0.000000e+00
      vertex   1.822374e+01 -9.971007e+00 -1.500000e+00
      vertex   1.824881e+01 -9.748486e+00 0.000000e+00
    endloop
  endfacet
  facet normal 9.937122e-01 -1.119645e-01 0.000000e+00
    outer loop
      vertex   1.824881e+01 -9.748486e+00 0.000000e+00
      vertex   1.822374e+01 -9.971007e+00 -1.500000e+00
      vertex   1.824881e+01 -9.748486e+00 -1.500000e+00
    endloop
  endfacet
  facet normal -0.000000e+00 -1.000000e+00 -0.000000e+00
    outer loop
      vertex   1.724881e+01 -1.074849e+01 0.000000e+00
      vertex   -1.725119e+01 -1.074849e+01 0.000000e+00
      vertex   1.724881e+01 -1.074849e+01 -1.500000e+00
    endloop
  endfacet
  facet normal 0.000000e+00 -1.000000e+00 0.000000e+00
    outer loop
      vertex   1.724881e+01 -1.074849e+01 -1.500000e+00
      vertex   -1.725119e+01 -1.074849e+01 0.000000e+00
      vertex   -1.725119e+01 -1.074849e+01 -1.500000e+00
    endloop
  endfacet
  facet normal -9.937122e-01 -1.119645e-01 -0.000000e+00
    outer loop
      vertex   -1.825119e+01 -9.748486e+00 0.000000e+00
      vertex   -1.825119e+01 -9.748486e+00 -1.500000e+00
      vertex   -1.822612e+01 -9.971007e+00 0.000000e+00
    endloop
  endfacet
  facet normal -9.937122e-01 -1.119645e-01 -0.000000e+00
    outer loop
      vertex   -1.822612e+01 -9.971007e+00 0.000000e+00
      vertex   -1.825119e+01 -9.748486e+00 -1.500000e+00
      vertex   -1.822612e+01 -9.971007e+00 -1.500000e+00
    endloop
  endfacet
  facet normal -9.438833e-01 -3.302791e-01 -0.000000e+00
    outer loop
      vertex   -1.822612e+01 -9.971007e+00 0.000000e+00
      vertex   -1.822612e+01 -9.971007e+00 -1.500000e+00
      vertex   -1.815216e+01 -1.018237e+01 0.000000e+00
    endloop
  endfacet
  facet normal -9.438833e-01 -3.302791e-01 -0.000000e+00
    outer loop
      vertex   -1.815216e+01 -1.018237e+01 0.000000e+00
      vertex   -1.822612e+01 -9.971007e+00 -1.500000e+00
      vertex   -1.815216e+01 -1.018237e+01 -1.500000e+00
    endloop
  endfacet
  facet normal -8.467242e-01 -5.320321e-01 -0.000000e+00
    outer loop
      vertex   -1.815216e+01 -1.018237e+01 0.000000e+00
      vertex   -1.815216e+01 -1.018237e+01 -1.500000e+00
      vertex   -1.803302e+01 -1.037198e+01 0.000000e+00
    endloop
  endfacet
  facet normal -8.467242e-01 -5.320321e-01 -0.000000e+00
    outer loop
      vertex   -1.803302e+01 -1.037198e+01 0.000000e+00
      vertex   -1.815216e+01 -1.018237e+01 -1.500000e+00
      vertex   -1.803302e+01 -1.037198e+01 -1.500000e+00
    endloop
  endfacet
  facet normal -7.071068e-01 -7.071068e-01 -0.000000e+00
    outer loop
      vertex   -1.803302e+01 -1.037198e+01 0.000000e+00
      vertex   -1.803302e+01 -1.037198e+01 -1.500000e+00
      vertex   -1.787468e+01 -1.053032e+01 0.000000e+00
    endloop
  endfacet
  facet normal -7.071068e-01 -7.071068e-01 -0.000000e+00
    outer loop
      vertex   -1.787468e+01 -1.053032e+01 0.000000e+00
      vertex   -1.803302e+01 -1.037198e+01 -1.500000e+00
      vertex   -1.787468e+01 -1.053032e+01 -1.500000e+00
    endloop
  endfacet
  facet normal -5.320321e-01 -8.467242e-01 -0.000000e+00
    outer loop
      vertex   -1.787468e+01 -1.053032e+01 0.000000e+00
      vertex   -1.787468e+01 -1.053032e+01 -1.500000e+00
      vertex   -1.768507e+01 -1.064945e+01 0.000000e+00
    endloop
  endfacet
  facet normal -5.320321e-01 -8.467242e-01 -0.000000e+00
    outer loop
      vertex   -1.768507e+01 -1.064945e+01 0.000000e+00
      vertex   -1.787468e+01 -1.053032e+01 -1.500000e+00
      vertex   -1.768507e+01 -1.064945e+01 -1.500000e+00
    endloop
  endfacet
  facet normal -3.302791e-01 -9.438833e-01 -0.000000e+00
    outer loop
      vertex   -1.768507e+01 -1.064945e+01 0.000000e+00
      vertex   -1.768507e+01 -1.064945e+01 -1.500000e+00
      vertex   -1.747371e+01 -1.072341e+01 0.000000e+00
    endloop
  endfacet
  facet normal -3.302791e-01 -9.438833e-01 -0.000000e+00
    outer loop
      vertex   -1.747371e+01 -1.072341e+01 0.000000e+00
      vertex   -1.768507e+01 -1.064945e+01 -1.500000e+00
      vertex   -1.747371e+01 -1.072341e+01 -1.500000e+00
    endloop
  endfacet
  facet normal -1.119645e-01 -9.937122e-01 -0.000000e+00
    outer loop
      vertex   -1.747371e+01 -1.072341e+01 0.000000e+00
      vertex   -1.747371e+01 -1.072341e+01 -1.500000e+00
      vertex   -1.725119e+01 -1.074849e+01 0.000000e+00
    endloop
  endfacet
  facet normal -1.119645e-01 -9.937122e-01 -0.000000e+00
    outer loop
      vertex   -1.725119e+01 -1.074849e+01 0.000000e+00
      vertex   -1.747371e+01 -1.072341e+01 -1.500000e+00
      vertex   -1.725119e+01 -1.074849e+01 -1.500000e+00
    endloop
  endfacet
  facet normal -1.000000e+00 0.000000e+00 0.000000e+00
    outer loop
      vertex   -1.825119e+01 9.751514e+00 -1.500000e+00
      vertex   -1.825119e+01 -9.748486e+00 -1.500000e+00
      vertex   -1.825119e+01 9.751514e+00 0.000000e+00
    endloop
  endfacet
  facet normal -1.000000e+00 -0.000000e+00 0.000000e+00
    outer loop
      vertex   -1.825119e+01 9.751514e+00 0.000000e+00
      vertex   -1.825119e+01 -9.748486e+00 -1.500000e+00
      vertex   -1.825119e+01 -9.748486e+00 0.000000e+00
    endloop
  endfacet
  facet normal 1.000000e+00 0.000000e+00 0.000000e+00
    outer loop
      vertex   1.824881e+01 9.751514e+00 0.000000e+00
      vertex   1.824881e+01 -9.748486e+00 0.000000e+00
      vertex   1.824881e+01 9.751514e+00 -1.500000e+00
    endloop
  endfacet
  facet normal 1.000000e+00 0.000000e+00 0.000000e+00
    outer loop
      vertex   1.824881e+01 9.751514e+00 -1.500000e+00
      vertex   1.824881e+01 -9.748486e+00 0.000000e+00
      vertex   1.824881e+01 -9.748486e+00 -1.500000e+00
    endloop
  endfacet
  facet normal -0.000000e+00 0.000000e+00 -1.000000e+00
    outer loop
      vertex   -1.670000e+01 -9.200000e+00 -1.500000e+00
      vertex   -1.825119e+01 -9.748486e+00 -1.500000e+00
      vertex   -1.670000e+01 9.200000e+00 -1.500000e+00
    endloop
  endfacet
  facet normal -0.000000e+00 0.000000e+00 -1.000000e+00
    outer loop
      vertex   -1.670000e+01 9.200000e+00 -1.500000e+00
      vertex   -1.825119e+01 -9.748486e+00 -1.500000e+00
      vertex   -1.825119e+01 9.751514e+00 -1.500000e+00
    endloop
  endfacet
  facet normal 0.000000e+00 0.000000e+00 -1.000000e+00
    outer loop
      vertex   -1.670000e+01 9.200000e+00 -1.500000e+00
      vertex   -1.825119e+01 9.751514e+00 -1.500000e+00
      vertex   -1.822612e+01 9.974035e+00 -1.500000e+00
    endloop
  endfacet
  facet normal -0.000000e+00 -0.000000e+00 -1.000000e+00
    outer loop
      vertex   1.670000e+01 -9.200000e+00 -1.500000e+00
      vertex   1.724881e+01 -1.074849e+01 -1.500000e+00
      vertex   -1.670000e+01 -9.200000e+00 -1.500000e+00
    endloop
  endfacet
  facet normal 0.000000e+00 -0.000000e+00 -1.000000e+00
    outer loop
      vertex   -1.670000e+01 -9.200000e+00 -1.500000e+00
      vertex   1.724881e+01 -1.074849e+01 -1.500000e+00
      vertex   -1.725119e+01 -1.074849e+01 -1.500000e+00
    endloop
  endfacet
  facet normal 0.000000e+00 0.000000e+00 -1.000000e+00
    outer loop
      vertex   -1.670000e+01 -9.200000e+00 -1.500000e+00
      vertex   -1.725119e+01 -1.074849e+01 -1.500000e+00
      vertex   -1.803302e+01 -1.037198e+01 -1.500000e+00
    endloop
  endfacet
  facet normal 0.000000e+00 0.000000e+00 -1.000000e+00
    outer loop
      vertex   -1.803302e+01 -1.037198e+01 -1.500000e+00
      vertex   -1.725119e+01 -1.074849e+01 -1.500000e+00
      vertex   -1.787468e+01 -1.053032e+01 -1.500000e+00
    endloop
  endfacet
  facet normal 0.000000e+00 0.000000e+00 -1.000000e+00
    outer loop
      vertex   -1.787468e+01 -1.053032e+01 -1.500000e+00
      vertex   -1.725119e+01 -1.074849e+01 -1.500000e+00
      vertex   -1.768507e+01 -1.064945e+01 -1.500000e+00
    endloop
  endfacet
  facet normal 0.000000e+00 0.000000e+00 -1.000000e+00
    outer loop
      vertex   -1.768507e+01 -1.064945e+01 -1.500000e+00
      vertex   -1.725119e+01 -1.074849e+01 -1.500000e+00
      vertex   -1.747371e+01 -1.072341e+01 -1.500000e+00
    endloop
  endfacet
  facet normal 0.000000e+00 0.000000e+00 -1.000000e+00
    outer loop
      vertex   1.670000e+01 9.200000e+00 -1.500000e+00
      vertex   1.824881e+01 -9.748486e+00 -1.500000e+00
      vertex   1.670000e+01 -9.200000e+00 -1.500000e+00
    endloop
  endfacet
  facet normal 0.000000e+00 0.000000e+00 -1.000000e+00
    outer loop
      vertex   1.670000e+01 -9.200000e+00 -1.500000e+00
      vertex   1.824881e+01 -9.748486e+00 -1.500000e+00
      vertex   1.822374e+01 -9.971007e+00 -1.500000e+00
    endloop
  endfacet
  facet normal 0.000000e+00 0.000000e+00 -1.000000e+00
    outer loop
      vertex   1.670000e+01 -9.200000e+00 -1.500000e+00
      vertex   1.822374e+01 -9.971007e+00 -1.500000e+00
      vertex   1.814978e+01 -1.018237e+01 -1.500000e+00
    endloop
  endfacet
  facet normal 0.000000e+00 0.000000e+00 -1.000000e+00
    outer loop
      vertex   -1.670000e+01 9.200000e+00 -1.500000e+00
      vertex   1.724881e+01 1.075151e+01 -1.500000e+00
      vertex   1.670000e+01 9.200000e+00 -1.500000e+00
    endloop
  endfacet
  facet normal 0.000000e+00 0.000000e+00 -1.000000e+00
    outer loop
      vertex   1.670000e+01 9.200000e+00 -1.500000e+00
      vertex   1.724881e+01 1.075151e+01 -1.500000e+00
      vertex   1.803064e+01 1.037500e+01 -1.500000e+00
    endloop
  endfacet
  facet normal 0.000000e+00 0.000000e+00 -1.000000e+00
    outer loop
      vertex   1.670000e+01 9.200000e+00 -1.500000e+00
      vertex   1.803064e+01 1.037500e+01 -1.500000e+00
      vertex   1.814978e+01 1.018540e+01 -1.500000e+00
    endloop
  endfacet
  facet normal -0.000000e+00 -0.000000e+00 -1.000000e+00
    outer loop
      vertex   1.747133e+01 1.072644e+01 -1.500000e+00
      vertex   1.768269e+01 1.065248e+01 -1.500000e+00
      vertex   1.724881e+01 1.075151e+01 -1.500000e+00
    endloop
  endfacet
  facet normal 0.000000e+00 0.000000e+00 -1.000000e+00
    outer loop
      vertex   1.724881e+01 1.075151e+01 -1.500000e+00
      vertex   1.768269e+01 1.065248e+01 -1.500000e+00
      vertex   1.787230e+01 1.053335e+01 -1.500000e+00
    endloop
  endfacet
  facet normal 0.000000e+00 0.000000e+00 -1.000000e+00
    outer loop
      vertex   1.724881e+01 1.075151e+01 -1.500000e+00
      vertex   1.787230e+01 1.053335e+01 -1.500000e+00
      vertex   1.803064e+01 1.037500e+01 -1.500000e+00
    endloop
  endfacet
  facet normal 0.000000e+00 -0.000000e+00 -1.000000e+00
    outer loop
      vertex   1.814978e+01 1.018540e+01 -1.500000e+00
      vertex   1.822374e+01 9.974035e+00 -1.500000e+00
      vertex   1.670000e+01 9.200000e+00 -1.500000e+00
    endloop
  endfacet
  facet normal 0.000000e+00 0.000000e+00 -1.000000e+00
    outer loop
      vertex   1.670000e+01 9.200000e+00 -1.500000e+00
      vertex   1.822374e+01 9.974035e+00 -1.500000e+00
      vertex   1.824881e+01 9.751514e+00 -1.500000e+00
    endloop
  endfacet
  facet normal 0.000000e+00 0.000000e+00 -1.000000e+00
    outer loop
      vertex   1.670000e+01 9.200000e+00 -1.500000e+00
      vertex   1.824881e+01 9.751514e+00 -1.500000e+00
      vertex   1.824881e+01 -9.748486e+00 -1.500000e+00
    endloop
  endfacet
  facet normal -0.000000e+00 0.000000e+00 -1.000000e+00
    outer loop
      vertex   1.814978e+01 -1.018237e+01 -1.500000e+00
      vertex   1.803064e+01 -1.037198e+01 -1.500000e+00
      vertex   1.670000e+01 -9.200000e+00 -1.500000e+00
    endloop
  endfacet
  facet normal 0.000000e+00 0.000000e+00 -1.000000e+00
    outer loop
      vertex   1.670000e+01 -9.200000e+00 -1.500000e+00
      vertex   1.803064e+01 -1.037198e+01 -1.500000e+00
      vertex   1.724881e+01 -1.074849e+01 -1.500000e+00
    endloop
  endfacet
  facet normal 0.000000e+00 0.000000e+00 -1.000000e+00
    outer loop
      vertex   1.803064e+01 -1.037198e+01 -1.500000e+00
      vertex   1.787230e+01 -1.053032e+01 -1.500000e+00
      vertex   1.724881e+01 -1.074849e+01 -1.500000e+00
    endloop
  endfacet
  facet normal 0.000000e+00 0.000000e+00 -1.000000e+00
    outer loop
      vertex   1.724881e+01 -1.074849e+01 -1.500000e+00
      vertex   1.787230e+01 -1.053032e+01 -1.500000e+00
      vertex   1.768269e+01 -1.064945e+01 -1.500000e+00
    endloop
  endfacet
  facet normal 0.000000e+00 0.000000e+00 -1.000000e+00
    outer loop
      vertex   1.724881e+01 -1.074849e+01 -1.500000e+00
      vertex   1.768269e+01 -1.064945e+01 -1.500000e+00
      vertex   1.747133e+01 -1.072341e+01 -1.500000e+00
    endloop
  endfacet
  facet normal 0.000000e+00 0.000000e+00 -1.000000e+00
    outer loop
      vertex   -1.803302e+01 -1.037198e+01 -1.500000e+00
      vertex   -1.815216e+01 -1.018237e+01 -1.500000e+00
      vertex   -1.670000e+01 -9.200000e+00 -1.500000e+00
    endloop
  endfacet
  facet normal 0.000000e+00 0.000000e+00 -1.000000e+00
    outer loop
      vertex   -1.670000e+01 -9.200000e+00 -1.500000e+00
      vertex   -1.815216e+01 -1.018237e+01 -1.500000e+00
      vertex   -1.822612e+01 -9.971007e+00 -1.500000e+00
    endloop
  endfacet
  facet normal 0.000000e+00 0.000000e+00 -1.000000e+00
    outer loop
      vertex   -1.670000e+01 -9.200000e+00 -1.500000e+00
      vertex   -1.822612e+01 -9.971007e+00 -1.500000e+00
      vertex   -1.825119e+01 -9.748486e+00 -1.500000e+00
    endloop
  endfacet
  facet normal 0.000000e+00 0.000000e+00 -1.000000e+00
    outer loop
      vertex   -1.822612e+01 9.974035e+00 -1.500000e+00
      vertex   -1.815216e+01 1.018540e+01 -1.500000e+00
      vertex   -1.670000e+01 9.200000e+00 -1.500000e+00
    endloop
  endfacet
  facet normal 0.000000e+00 0.000000e+00 -1.000000e+00
    outer loop
      vertex   -1.670000e+01 9.200000e+00 -1.500000e+00
      vertex   -1.815216e+01 1.018540e+01 -1.500000e+00
      vertex   -1.803302e+01 1.037500e+01 -1.500000e+00
    endloop
  endfacet
  facet normal 0.000000e+00 0.000000e+00 -1.000000e+00
    outer loop
      vertex   -1.670000e+01 9.200000e+00 -1.500000e+00
      vertex   -1.803302e+01 1.037500e+01 -1.500000e+00
      vertex   -1.725119e+01 1.075151e+01 -1.500000e+00
    endloop
  endfacet
  facet normal 0.000000e+00 0.000000e+00 -1.000000e+00
    outer loop
      vertex   -1.725119e+01 1.075151e+01 -1.500000e+00
      vertex   -1.803302e+01 1.037500e+01 -1.500000e+00
      vertex   -1.787468e+01 1.053335e+01 -1.500000e+00
    endloop
  endfacet
  facet normal 0.000000e+00 0.000000e+00 -1.000000e+00
    outer loop
      vertex   -1.725119e+01 1.075151e+01 -1.500000e+00
      vertex   -1.787468e+01 1.053335e+01 -1.500000e+00
      vertex   -1.768507e+01 1.065248e+01 -1.500000e+00
    endloop
  endfacet
  facet normal 0.000000e+00 0.000000e+00 -1.000000e+00
    outer loop
      vertex   -1.768507e+01 1.065248e+01 -1.500000e+00
      vertex   -1.747371e+01 1.072644e+01 -1.500000e+00
      vertex   -1.725119e+01 1.075151e+01 -1.500000e+00
    endloop
  endfacet
  facet normal 0.000000e+00 0.000000e+00 -1.000000e+00
    outer loop
      vertex   -1.725119e+01 1.075151e+01 -1.500000e+00
      vertex   1.724881e+01 1.075151e+01 -1.500000e+00
      vertex   -1.670000e+01 9.200000e+00 -1.500000e+00
    endloop
  endfacet
endsolid
